<?xml version="1.0" encoding="UTF-8" standalone="no" ?>
<!DOCTYPE svg PUBLIC "-//W3C//DTD SVG 1.1//EN" "http://www.w3.org/Graphics/SVG/1.1/DTD/svg11.dtd">
<svg xmlns="http://www.w3.org/2000/svg" xmlns:xlink="http://www.w3.org/1999/xlink" version="1.1" width="1080" height="1080" viewBox="0 0 1080 1080" xml:space="preserve">
<desc>Created with Fabric.js 5.2.4</desc>
<defs>
</defs>
<g transform="matrix(1 0 0 1 540 540)" id="98c06624-f09e-4c5a-848e-ad2cfbf1e38e"  >
</g>
<g transform="matrix(1 0 0 1 540 540)" id="f56e9b6c-e825-4bff-a5b1-4a8e06ff5a61"  >
<rect style="stroke: none; stroke-width: 1; stroke-dasharray: none; stroke-linecap: butt; stroke-dashoffset: 0; stroke-linejoin: miter; stroke-miterlimit: 4; fill: rgb(255,255,255); fill-rule: nonzero; opacity: 1;" vector-effect="non-scaling-stroke"  x="-540" y="-540" rx="0" ry="0" width="1080" height="1080" />
</g>
<g transform="matrix(1 0 0 1 540 540)"  >
<g style="" vector-effect="non-scaling-stroke"   >
		<g transform="matrix(1 0 0 1 -141.5 0.65)"  >
<path style="stroke: none; stroke-width: 1; stroke-dasharray: none; stroke-linecap: butt; stroke-dashoffset: 0; stroke-linejoin: miter; stroke-miterlimit: 4; fill: rgb(20,24,62); fill-rule: nonzero; opacity: 1;" vector-effect="non-scaling-stroke"  transform=" translate(-155.55, -50.65)" d="M 133.8 85.7 L 133.8 15.6 L 177.3 15.6 L 177.3 25.5 L 145.20000000000002 25.5 L 145.20000000000002 49.1 L 171.9 49.1 L 171.9 59 L 145.20000000000002 59 L 145.20000000000002 85.6 L 133.8 85.6 z" stroke-linecap="round" />
</g>
		<g transform="matrix(1 0 0 1 -91.3 10.65)"  >
<path style="stroke: none; stroke-width: 1; stroke-dasharray: none; stroke-linecap: butt; stroke-dashoffset: 0; stroke-linejoin: miter; stroke-miterlimit: 4; fill: rgb(20,24,62); fill-rule: nonzero; opacity: 1;" vector-effect="non-scaling-stroke"  transform=" translate(-205.75, -60.65)" d="M 216 34.5 L 227 34.5 L 227 85.7 L 216 85.7 L 216 82.5 C 211 85.4 206.4 86.8 202.2 86.8 C 195.2 86.8 190.5 84.89999999999999 188.1 81.1 C 185.7 77.3 184.5 70.69999999999999 184.5 61.199999999999996 L 184.5 34.5 L 195.7 34.5 L 195.7 61.3 C 195.7 67.39999999999999 196.2 71.6 197.2 73.7 C 198.2 75.8 200.6 76.9 204.39999999999998 76.9 C 208.09999999999997 76.9 211.49999999999997 76.2 214.49999999999997 74.9 L 215.99999999999997 74.30000000000001 L 215.99999999999997 34.5 z" stroke-linecap="round" />
</g>
		<g transform="matrix(1 0 0 1 -35.15 9.55)"  >
<path style="stroke: none; stroke-width: 1; stroke-dasharray: none; stroke-linecap: butt; stroke-dashoffset: 0; stroke-linejoin: miter; stroke-miterlimit: 4; fill: rgb(20,24,62); fill-rule: nonzero; opacity: 1;" vector-effect="non-scaling-stroke"  transform=" translate(-261.9, -59.55)" d="M 251.7 85.7 L 240.5 85.7 L 240.5 34.5 L 251.5 34.5 L 251.5 37.7 C 256.5 34.800000000000004 261.2 33.400000000000006 265.6 33.400000000000006 C 272.40000000000003 33.400000000000006 277.1 35.300000000000004 279.6 39.2 C 282.1 43.1 283.3 49.400000000000006 283.3 58.300000000000004 L 283.3 85.7 L 272.2 85.7 L 272.2 58.5 C 272.2 53 271.59999999999997 49.1 270.4 46.7 C 269.2 44.400000000000006 266.79999999999995 43.2 263.09999999999997 43.2 C 259.59999999999997 43.2 256.29999999999995 43.900000000000006 253.09999999999997 45.2 L 251.59999999999997 45.800000000000004 L 251.59999999999997 85.7 z" stroke-linecap="round" />
</g>
		<g transform="matrix(1 0 0 1 19.1 0)"  >
<path style="stroke: none; stroke-width: 1; stroke-dasharray: none; stroke-linecap: butt; stroke-dashoffset: 0; stroke-linejoin: miter; stroke-miterlimit: 4; fill: rgb(20,24,62); fill-rule: nonzero; opacity: 1;" vector-effect="non-scaling-stroke"  transform=" translate(-316.15, -50)" d="M 338.2 13.2 L 338.2 85.60000000000001 L 327.2 85.60000000000001 L 327.2 83 C 322.2 85.5 317.59999999999997 86.8 313.5 86.8 C 306.8 86.8 301.9 84.8 298.8 80.8 C 295.7 76.8 294.1 70 294.1 60.5 C 294.1 51 295.8 44.1 299.3 39.8 C 302.7 35.5 308.1 33.4 315.40000000000003 33.4 C 317.90000000000003 33.4 321.70000000000005 33.8 327.1 34.699999999999996 L 327.1 13.2 L 338.2 13.2 z M 325.3 75 L 327 74.3 L 327 44 C 322.9 43.3 319.1 43 315.6 43 C 308.70000000000005 43 305.3 48.7 305.3 60.2 C 305.3 66.5 306.1 70.8 307.7 73.2 C 309.3 75.60000000000001 311.8 76.8 315.3 76.8 C 318.9 76.9 322.2 76.2 325.3 75 z" stroke-linecap="round" />
</g>
		<g transform="matrix(1 0 0 1 68.9 9.5)"  >
<path style="stroke: none; stroke-width: 1; stroke-dasharray: none; stroke-linecap: butt; stroke-dashoffset: 0; stroke-linejoin: miter; stroke-miterlimit: 4; fill: rgb(20,24,62); fill-rule: nonzero; opacity: 1;" vector-effect="non-scaling-stroke"  transform=" translate(-365.95, -59.5)" d="M 351.7 85.7 L 351.7 34.5 L 362.8 34.5 L 362.8 40.6 C 368.6 36.800000000000004 374.40000000000003 34.4 380.2 33.300000000000004 L 380.2 44.5 C 374.3 45.7 369.3 47.2 365.2 49 L 362.9 49.9 L 362.9 85.6 L 351.7 85.6 z" stroke-linecap="round" />
</g>
		<g transform="matrix(1 0 0 1 111.15 10.05)"  >
<path style="stroke: none; stroke-width: 1; stroke-dasharray: none; stroke-linecap: butt; stroke-dashoffset: 0; stroke-linejoin: miter; stroke-miterlimit: 4; fill: rgb(20,24,62); fill-rule: nonzero; opacity: 1;" vector-effect="non-scaling-stroke"  transform=" translate(-408.2, -60.05)" d="M 426.5 50.3 L 426.5 73.6 C 426.6 75.1 427 76.19999999999999 427.7 76.89999999999999 C 428.4 77.6 429.5 78.1 431 78.3 L 430.7 86.8 C 424.8 86.8 420.3 85.5 417.09999999999997 83 C 411.59999999999997 85.5 406.2 86.8 400.59999999999997 86.8 C 390.4 86.8 385.4 81.39999999999999 385.4 70.5 C 385.4 65.3 386.79999999999995 61.6 389.5 59.2 C 392.3 56.900000000000006 396.5 55.5 402.2 55 L 415.4 53.9 L 415.4 50.199999999999996 C 415.4 47.49999999999999 414.79999999999995 45.599999999999994 413.59999999999997 44.49999999999999 C 412.4 43.39999999999999 410.59999999999997 42.89999999999999 408.29999999999995 42.89999999999999 C 403.9 42.89999999999999 398.49999999999994 43.19999999999999 391.9 43.69999999999999 L 388.59999999999997 43.89999999999999 L 388.2 35.99999999999999 C 395.59999999999997 34.199999999999996 402.5 33.29999999999999 408.7 33.29999999999999 C 414.9 33.29999999999999 419.4 34.59999999999999 422.2 37.29999999999999 C 425.1 40.1 426.5 44.4 426.5 50.3 z M 403.6 62.9 C 398.90000000000003 63.3 396.5 65.9 396.5 70.6 C 396.5 75.29999999999998 398.6 77.69999999999999 402.7 77.69999999999999 C 406.09999999999997 77.69999999999999 409.7 77.19999999999999 413.5 76.1 L 415.3 75.5 L 415.3 61.8 L 403.6 62.9 z" stroke-linecap="round" />
</g>
		<g transform="matrix(1 0 0 1 149.05 -0.15)"  >
<path style="stroke: none; stroke-width: 1; stroke-dasharray: none; stroke-linecap: butt; stroke-dashoffset: 0; stroke-linejoin: miter; stroke-miterlimit: 4; fill: rgb(20,24,62); fill-rule: nonzero; opacity: 1;" vector-effect="non-scaling-stroke"  transform=" translate(-446.1, -49.85)" d="M 440.5 25.8 L 440.5 14 L 451.7 14 L 451.7 25.8 L 440.5 25.8 z M 440.5 85.7 L 440.5 34.5 L 451.7 34.5 L 451.7 85.7 L 440.5 85.7 z" stroke-linecap="round" />
</g>
		<g transform="matrix(1 0 0 1 185.4 10.2)"  >
<path style="stroke: none; stroke-width: 1; stroke-dasharray: none; stroke-linecap: butt; stroke-dashoffset: 0; stroke-linejoin: miter; stroke-miterlimit: 4; fill: rgb(20,24,62); fill-rule: nonzero; opacity: 1;" vector-effect="non-scaling-stroke"  transform=" translate(-482.45, -60.2)" d="M 500.7 45 C 492.7 43.9 486.8 43.4 483.2 43.4 C 479.59999999999997 43.4 477.09999999999997 43.8 475.7 44.699999999999996 C 474.3 45.599999999999994 473.59999999999997 46.9 473.59999999999997 48.699999999999996 C 473.59999999999997 50.49999999999999 474.4 51.8 475.9 52.599999999999994 C 477.4 53.39999999999999 481 54.199999999999996 486.7 55.199999999999996 C 492.4 56.199999999999996 496.4 57.699999999999996 498.8 59.9 C 501.2 62 502.40000000000003 65.8 502.40000000000003 71.2 C 502.40000000000003 76.60000000000001 500.70000000000005 80.5 497.20000000000005 83.10000000000001 C 493.80000000000007 85.60000000000001 488.70000000000005 86.9 482.1 86.9 C 477.90000000000003 86.9 472.70000000000005 86.30000000000001 466.3 85.2 L 463.1 84.7 L 463.5 75.4 C 471.7 76.5 477.6 77 481.2 77 C 484.8 77 487.4 76.6 488.9 75.7 C 490.4 74.8 491.2 73.3 491.2 71.3 C 491.2 69.3 490.5 67.8 489 67.1 C 487.5 66.3 484 65.5 478.5 64.5 C 473 63.4 469 62 466.4 60 C 463.79999999999995 58 462.5 54.4 462.5 49.2 C 462.5 43.900000000000006 464.3 40 467.9 37.400000000000006 C 471.5 34.800000000000004 476.09999999999997 33.50000000000001 481.7 33.50000000000001 C 486.09999999999997 33.50000000000001 491.4 34.00000000000001 497.8 35.10000000000001 L 501 35.70000000000001 L 500.7 45 z" stroke-linecap="round" />
</g>
		<g transform="matrix(1 0 0 1 235.5 10.1)"  >
<path style="stroke: none; stroke-width: 1; stroke-dasharray: none; stroke-linecap: butt; stroke-dashoffset: 0; stroke-linejoin: miter; stroke-miterlimit: 4; fill: rgb(20,24,62); fill-rule: nonzero; opacity: 1;" vector-effect="non-scaling-stroke"  transform=" translate(-532.55, -60.1)" d="M 549.6 76.4 L 552.5 76.10000000000001 L 552.7 84.4 C 544.9000000000001 86 538 86.80000000000001 532 86.80000000000001 C 524.4 86.80000000000001 519 84.70000000000002 515.7 80.60000000000001 C 512.4000000000001 76.4 510.70000000000005 69.80000000000001 510.70000000000005 60.60000000000001 C 510.70000000000005 42.50000000000001 518.1 33.400000000000006 532.9000000000001 33.400000000000006 C 547.2 33.400000000000006 554.4000000000001 41.2 554.4000000000001 56.800000000000004 L 553.7 64.80000000000001 L 522 64.80000000000001 C 522.1 69.00000000000001 523 72.10000000000001 524.8 74.10000000000001 C 526.5999999999999 76.10000000000001 529.9 77.10000000000001 534.6999999999999 77.10000000000001 C 539.4999999999999 77.10000000000001 544.4 76.9 549.6 76.4 z M 543.4 56.2 C 543.4 51.2 542.6 47.6 541 45.6 C 539.4 43.6 536.7 42.6 532.9 42.6 C 529.1 42.6 526.3 43.7 524.6 45.800000000000004 C 522.9 47.900000000000006 522 51.400000000000006 521.9 56.2 L 543.4 56.2 z" stroke-linecap="round" />
</g>
		<g transform="matrix(1 0 0 1 282.3 9.5)"  >
<path style="stroke: none; stroke-width: 1; stroke-dasharray: none; stroke-linecap: butt; stroke-dashoffset: 0; stroke-linejoin: miter; stroke-miterlimit: 4; fill: rgb(20,24,62); fill-rule: nonzero; opacity: 1;" vector-effect="non-scaling-stroke"  transform=" translate(-579.35, -59.5)" d="M 565.1 85.7 L 565.1 34.5 L 576.2 34.5 L 576.2 40.6 C 582 36.800000000000004 587.8000000000001 34.4 593.6 33.300000000000004 L 593.6 44.5 C 587.7 45.7 582.7 47.2 578.6 49 L 576.3000000000001 49.9 L 576.3000000000001 85.6 L 565.1 85.6 z" stroke-linecap="round" />
</g>
		<g transform="matrix(1 0 0 1 -246.55 -40)"  >
<path style="stroke: none; stroke-width: 1; stroke-dasharray: none; stroke-linecap: butt; stroke-dashoffset: 0; stroke-linejoin: miter; stroke-miterlimit: 4; fill: rgb(93,173,170); fill-rule: nonzero; opacity: 1;" vector-effect="non-scaling-stroke"  transform=" translate(-50.5, -10)" d="M 0.5 20 L 20.2 20 L 20.2 0 L 0.5 0 L 0.5 20 z M 80.8 0 L 80.8 20 L 100.5 20 L 100.5 0 L 80.8 0 z M 40.6 20 L 60.3 20 L 60.3 0 L 40.6 0 L 40.6 20 z" stroke-linecap="round" />
</g>
		<g transform="matrix(1 0 0 1 -246.55 0)"  >
<path style="stroke: none; stroke-width: 1; stroke-dasharray: none; stroke-linecap: butt; stroke-dashoffset: 0; stroke-linejoin: miter; stroke-miterlimit: 4; fill: rgb(255,116,104); fill-rule: nonzero; opacity: 1;" vector-effect="non-scaling-stroke"  transform=" translate(-50.5, -50)" d="M 0.5 60 L 20.2 60 L 20.2 40 L 0.5 40 L 0.5 60 z M 80.8 40 L 80.8 60 L 100.5 60 L 100.5 40 L 80.8 40 z M 40.6 60 L 60.3 60 L 60.3 40 L 40.6 40 L 40.6 60 z" stroke-linecap="round" />
</g>
		<g transform="matrix(1 0 0 1 -246.55 40)"  >
<path style="stroke: none; stroke-width: 1; stroke-dasharray: none; stroke-linecap: butt; stroke-dashoffset: 0; stroke-linejoin: miter; stroke-miterlimit: 4; fill: rgb(93,173,170); fill-rule: nonzero; opacity: 1;" vector-effect="non-scaling-stroke"  transform=" translate(-50.5, -90)" d="M 0.5 100 L 20.2 100 L 20.2 80 L 0.5 80 L 0.5 100 z M 80.8 80 L 80.8 100 L 100.5 100 L 100.5 80 L 80.8 80 z M 40.6 100 L 60.3 100 L 60.3 80 L 40.6 80 L 40.6 100 z" stroke-linecap="round" />
</g>
</g>
</g>
</svg>