<?xml version="1.0" encoding="utf-8"?>
<!-- Generator: Adobe Illustrator 23.0.0, SVG Export Plug-In . SVG Version: 6.00 Build 0)  -->
<svg version="1.1" id="Layer_1" xmlns="http://www.w3.org/2000/svg" xmlns:xlink="http://www.w3.org/1999/xlink" x="0px" y="0px"
	 viewBox="0 0 594 100" style="enable-background:new 0 0 594 100;" xml:space="preserve">
<style type="text/css">
	.st0{fill:#14183E;}
	.st1{fill:#5DADAA;}
	.st2{fill:#FF7468;}
</style>
<g>
	<g>
		<g>
			<path class="st0" d="M133.8,85.7V15.6h43.5v9.9h-32.1v23.6h26.7v9.9h-26.7v26.6H133.8z"/>
			<path class="st0" d="M216,34.5h11v51.2h-11v-3.2c-5,2.9-9.6,4.3-13.8,4.3c-7,0-11.7-1.9-14.1-5.7c-2.4-3.8-3.6-10.4-3.6-19.9
				V34.5h11.2v26.8c0,6.1,0.5,10.3,1.5,12.4c1,2.1,3.4,3.2,7.2,3.2c3.7,0,7.1-0.7,10.1-2l1.5-0.6V34.5z"/>
			<path class="st0" d="M251.7,85.7h-11.2V34.5h11v3.2c5-2.9,9.7-4.3,14.1-4.3c6.8,0,11.5,1.9,14,5.8c2.5,3.9,3.7,10.2,3.7,19.1
				v27.4h-11.1V58.5c0-5.5-0.6-9.4-1.8-11.8c-1.2-2.3-3.6-3.5-7.3-3.5c-3.5,0-6.8,0.7-10,2l-1.5,0.6V85.7z"/>
			<path class="st0" d="M338.2,13.2v72.4h-11V83c-5,2.5-9.6,3.8-13.7,3.8c-6.7,0-11.6-2-14.7-6c-3.1-4-4.7-10.8-4.7-20.3
				c0-9.5,1.7-16.4,5.2-20.7c3.4-4.3,8.8-6.4,16.1-6.4c2.5,0,6.3,0.4,11.7,1.3V13.2H338.2z M325.3,75l1.7-0.7V44
				c-4.1-0.7-7.9-1-11.4-1c-6.9,0-10.3,5.7-10.3,17.2c0,6.3,0.8,10.6,2.4,13c1.6,2.4,4.1,3.6,7.6,3.6
				C318.9,76.9,322.2,76.2,325.3,75z"/>
			<path class="st0" d="M351.7,85.7V34.5h11.1v6.1c5.8-3.8,11.6-6.2,17.4-7.3v11.2c-5.9,1.2-10.9,2.7-15,4.5l-2.3,0.9v35.7H351.7z"
				/>
			<path class="st0" d="M426.5,50.3v23.3c0.1,1.5,0.5,2.6,1.2,3.3c0.7,0.7,1.8,1.2,3.3,1.4l-0.3,8.5c-5.9,0-10.4-1.3-13.6-3.8
				c-5.5,2.5-10.9,3.8-16.5,3.8c-10.2,0-15.2-5.4-15.2-16.3c0-5.2,1.4-8.9,4.1-11.3c2.8-2.3,7-3.7,12.7-4.2l13.2-1.1v-3.7
				c0-2.7-0.6-4.6-1.8-5.7c-1.2-1.1-3-1.6-5.3-1.6c-4.4,0-9.8,0.3-16.4,0.8l-3.3,0.2l-0.4-7.9c7.4-1.8,14.3-2.7,20.5-2.7
				s10.7,1.3,13.5,4C425.1,40.1,426.5,44.4,426.5,50.3z M403.6,62.9c-4.7,0.4-7.1,3-7.1,7.7s2.1,7.1,6.2,7.1c3.4,0,7-0.5,10.8-1.6
				l1.8-0.6V61.8L403.6,62.9z"/>
			<path class="st0" d="M440.5,25.8V14h11.2v11.8H440.5z M440.5,85.7V34.5h11.2v51.2H440.5z"/>
			<path class="st0" d="M500.7,45c-8-1.1-13.9-1.6-17.5-1.6c-3.6,0-6.1,0.4-7.5,1.3c-1.4,0.9-2.1,2.2-2.1,4c0,1.8,0.8,3.1,2.3,3.9
				c1.5,0.8,5.1,1.6,10.8,2.6c5.7,1,9.7,2.5,12.1,4.7c2.4,2.1,3.6,5.9,3.6,11.3c0,5.4-1.7,9.3-5.2,11.9c-3.4,2.5-8.5,3.8-15.1,3.8
				c-4.2,0-9.4-0.6-15.8-1.7l-3.2-0.5l0.4-9.3c8.2,1.1,14.1,1.6,17.7,1.6c3.6,0,6.2-0.4,7.7-1.3c1.5-0.9,2.3-2.4,2.3-4.4
				c0-2-0.7-3.5-2.2-4.2c-1.5-0.8-5-1.6-10.5-2.6C473,63.4,469,62,466.4,60c-2.6-2-3.9-5.6-3.9-10.8c0-5.3,1.8-9.2,5.4-11.8
				c3.6-2.6,8.2-3.9,13.8-3.9c4.4,0,9.7,0.5,16.1,1.6l3.2,0.6L500.7,45z"/>
			<path class="st0" d="M549.6,76.4l2.9-0.3l0.2,8.3c-7.8,1.6-14.7,2.4-20.7,2.4c-7.6,0-13-2.1-16.3-6.2c-3.3-4.2-5-10.8-5-20
				c0-18.1,7.4-27.2,22.2-27.2c14.3,0,21.5,7.8,21.5,23.4l-0.7,8h-31.7c0.1,4.2,1,7.3,2.8,9.3c1.8,2,5.1,3,9.9,3
				S544.4,76.9,549.6,76.4z M543.4,56.2c0-5-0.8-8.6-2.4-10.6c-1.6-2-4.3-3-8.1-3c-3.8,0-6.6,1.1-8.3,3.2c-1.7,2.1-2.6,5.6-2.7,10.4
				H543.4z"/>
			<path class="st0" d="M565.1,85.7V34.5h11.1v6.1c5.8-3.8,11.6-6.2,17.4-7.3v11.2c-5.9,1.2-10.9,2.7-15,4.5l-2.3,0.9v35.7H565.1z"
				/>
		</g>
	</g>
	<g>
		<path class="st1" d="M0.5,20h19.7V0H0.5V20z M80.8,0v20h19.7V0H80.8z M40.6,20h19.7V0H40.6V20z"/>
		<path class="st2" d="M0.5,60h19.7V40H0.5V60z M80.8,40v20h19.7V40H80.8z M40.6,60h19.7V40H40.6V60z"/>
		<path class="st1" d="M0.5,100h19.7V80H0.5V100z M80.8,80v20h19.7V80H80.8z M40.6,100h19.7V80H40.6V100z"/>
	</g>
</g>
</svg>
